<svg xmlns="http://www.w3.org/2000/svg" width="1200" height="3990" viewBox="0 0 1200 3990">
<rect width="100%" height="100%" fill="#ffffff" />
<defs>
  <marker id="arrow" markerWidth="10" markerHeight="8" refX="9" refY="4" orient="auto" markerUnits="strokeWidth">
    <path d="M 0 0 L 10 4 L 0 8 z" fill="#000000" />
  </marker>
</defs>
<text x="600.0" y="28" text-anchor="middle" font-family="Arial, Helvetica, sans-serif" font-size="14" font-weight="bold" fill="#000000">Диаграмма деятельности клиентского приложения</text>
<text x="600.0" y="48" text-anchor="middle" font-family="Arial, Helvetica, sans-serif" font-size="14" font-weight="normal" fill="#000000">(оформление в черно-белом стиле для отчета)</text>
<circle cx="600.0" cy="58" r="18" stroke="#000000" fill="#000000" stroke-width="2" />
<rect x="390.0" y="106" width="420" height="62" rx="18" ry="18" stroke="#000000" fill="#ffffff" stroke-width="2" />
<text x="600.0" y="133.0" text-anchor="middle" font-family="Arial, Helvetica, sans-serif" font-size="14" font-weight="normal" fill="#000000">Проверить наличие</text>
<text x="600.0" y="151.0" text-anchor="middle" font-family="Arial, Helvetica, sans-serif" font-size="14" font-weight="normal" fill="#000000">аргументов командной строки</text>
<polygon points="600.0,198 730.0,253.0 600.0,308 470.0,253.0" stroke="#000000" fill="#ffffff" stroke-width="2" />
<text x="600.0" y="249.0" text-anchor="middle" font-family="Arial, Helvetica, sans-serif" font-size="14" font-weight="normal" fill="#000000">Аргументы</text>
<text x="600.0" y="267.0" text-anchor="middle" font-family="Arial, Helvetica, sans-serif" font-size="14" font-weight="normal" fill="#000000">переданы?</text>
<rect x="420.0" y="338" width="360" height="62" rx="18" ry="18" stroke="#000000" fill="#ffffff" stroke-width="2" />
<text x="600.0" y="365.0" text-anchor="middle" font-family="Arial, Helvetica, sans-serif" font-size="14" font-weight="normal" fill="#000000">Вывести справку</text>
<text x="600.0" y="383.0" text-anchor="middle" font-family="Arial, Helvetica, sans-serif" font-size="14" font-weight="normal" fill="#000000">по использованию программы</text>
<circle cx="600.0" cy="448" r="18" stroke="#000000" fill="#ffffff" stroke-width="2" />
<circle cx="600.0" cy="448" r="12" stroke="#000000" fill="#000000" stroke-width="2" />
<rect x="390.0" y="496" width="420" height="56" rx="18" ry="18" stroke="#000000" fill="#ffffff" stroke-width="2" />
<text x="600.0" y="529.0" text-anchor="middle" font-family="Arial, Helvetica, sans-serif" font-size="14" font-weight="normal" fill="#000000">Создать объект Client</text>
<rect x="390.0" y="582" width="420" height="62" rx="18" ry="18" stroke="#000000" fill="#ffffff" stroke-width="2" />
<text x="600.0" y="609.0" text-anchor="middle" font-family="Arial, Helvetica, sans-serif" font-size="14" font-weight="normal" fill="#000000">Запустить метод</text>
<text x="600.0" y="627.0" text-anchor="middle" font-family="Arial, Helvetica, sans-serif" font-size="14" font-weight="normal" fill="#000000">Client.run(argc, argv)</text>
<rect x="390.0" y="674" width="420" height="62" rx="18" ry="18" stroke="#000000" fill="#ffffff" stroke-width="2" />
<text x="600.0" y="701.0" text-anchor="middle" font-family="Arial, Helvetica, sans-serif" font-size="14" font-weight="normal" fill="#000000">Разобрать аргументы</text>
<text x="600.0" y="719.0" text-anchor="middle" font-family="Arial, Helvetica, sans-serif" font-size="14" font-weight="normal" fill="#000000">командной строки</text>
<polygon points="600.0,766 730.0,821.0 600.0,876 470.0,821.0" stroke="#000000" fill="#ffffff" stroke-width="2" />
<text x="600.0" y="817.0" text-anchor="middle" font-family="Arial, Helvetica, sans-serif" font-size="14" font-weight="normal" fill="#000000">Аргументы</text>
<text x="600.0" y="835.0" text-anchor="middle" font-family="Arial, Helvetica, sans-serif" font-size="14" font-weight="normal" fill="#000000">корректны?</text>
<rect x="390.0" y="906" width="420" height="56" rx="18" ry="18" stroke="#000000" fill="#ffffff" stroke-width="2" />
<text x="600.0" y="939.0" text-anchor="middle" font-family="Arial, Helvetica, sans-serif" font-size="14" font-weight="normal" fill="#000000">Прочитать файл конфигурации</text>
<rect x="880" y="912" width="220" height="60" stroke="#000000" fill="#ffffff" stroke-width="1.5" stroke-dasharray="6,4" />
<text x="990.0" y="938.0" text-anchor="middle" font-family="Arial, Helvetica, sans-serif" font-size="14" font-weight="normal" fill="#000000">Из файла считываются:</text>
<text x="990.0" y="956.0" text-anchor="middle" font-family="Arial, Helvetica, sans-serif" font-size="14" font-weight="normal" fill="#000000">логин и пароль.</text>
<polygon points="600.0,992 730.0,1047.0 600.0,1102 470.0,1047.0" stroke="#000000" fill="#ffffff" stroke-width="2" />
<text x="600.0" y="1043.0" text-anchor="middle" font-family="Arial, Helvetica, sans-serif" font-size="14" font-weight="normal" fill="#000000">Конфигурация</text>
<text x="600.0" y="1061.0" text-anchor="middle" font-family="Arial, Helvetica, sans-serif" font-size="14" font-weight="normal" fill="#000000">прочитана?</text>
<rect x="390.0" y="1132" width="420" height="62" rx="18" ry="18" stroke="#000000" fill="#ffffff" stroke-width="2" />
<text x="600.0" y="1159.0" text-anchor="middle" font-family="Arial, Helvetica, sans-serif" font-size="14" font-weight="normal" fill="#000000">Считать векторы</text>
<text x="600.0" y="1177.0" text-anchor="middle" font-family="Arial, Helvetica, sans-serif" font-size="14" font-weight="normal" fill="#000000">из бинарного файла</text>
<polygon points="600.0,1224 730.0,1279.0 600.0,1334 470.0,1279.0" stroke="#000000" fill="#ffffff" stroke-width="2" />
<text x="600.0" y="1266.0" text-anchor="middle" font-family="Arial, Helvetica, sans-serif" font-size="14" font-weight="normal" fill="#000000">Входной файл</text>
<text x="600.0" y="1284.0" text-anchor="middle" font-family="Arial, Helvetica, sans-serif" font-size="14" font-weight="normal" fill="#000000">обработан</text>
<text x="600.0" y="1302.0" text-anchor="middle" font-family="Arial, Helvetica, sans-serif" font-size="14" font-weight="normal" fill="#000000">успешно?</text>
<rect x="390.0" y="1364" width="420" height="62" rx="18" ry="18" stroke="#000000" fill="#ffffff" stroke-width="2" />
<text x="600.0" y="1391.0" text-anchor="middle" font-family="Arial, Helvetica, sans-serif" font-size="14" font-weight="normal" fill="#000000">Проверить корректность</text>
<text x="600.0" y="1409.0" text-anchor="middle" font-family="Arial, Helvetica, sans-serif" font-size="14" font-weight="normal" fill="#000000">считанных данных</text>
<polygon points="600.0,1456 730.0,1511.0 600.0,1566 470.0,1511.0" stroke="#000000" fill="#ffffff" stroke-width="2" />
<text x="600.0" y="1507.0" text-anchor="middle" font-family="Arial, Helvetica, sans-serif" font-size="14" font-weight="normal" fill="#000000">Данные</text>
<text x="600.0" y="1525.0" text-anchor="middle" font-family="Arial, Helvetica, sans-serif" font-size="14" font-weight="normal" fill="#000000">валидны?</text>
<rect x="390.0" y="1596" width="420" height="62" rx="18" ry="18" stroke="#000000" fill="#ffffff" stroke-width="2" />
<text x="600.0" y="1623.0" text-anchor="middle" font-family="Arial, Helvetica, sans-serif" font-size="14" font-weight="normal" fill="#000000">Установить TCP-соединение</text>
<text x="600.0" y="1641.0" text-anchor="middle" font-family="Arial, Helvetica, sans-serif" font-size="14" font-weight="normal" fill="#000000">с сервером</text>
<polygon points="600.0,1688 730.0,1743.0 600.0,1798 470.0,1743.0" stroke="#000000" fill="#ffffff" stroke-width="2" />
<text x="600.0" y="1739.0" text-anchor="middle" font-family="Arial, Helvetica, sans-serif" font-size="14" font-weight="normal" fill="#000000">Соединение</text>
<text x="600.0" y="1757.0" text-anchor="middle" font-family="Arial, Helvetica, sans-serif" font-size="14" font-weight="normal" fill="#000000">установлено?</text>
<rect x="390.0" y="1828" width="420" height="56" rx="18" ry="18" stroke="#000000" fill="#ffffff" stroke-width="2" />
<text x="600.0" y="1861.0" text-anchor="middle" font-family="Arial, Helvetica, sans-serif" font-size="14" font-weight="normal" fill="#000000">Отправить серверу логин</text>
<rect x="390.0" y="1914" width="420" height="62" rx="18" ry="18" stroke="#000000" fill="#ffffff" stroke-width="2" />
<text x="600.0" y="1941.0" text-anchor="middle" font-family="Arial, Helvetica, sans-serif" font-size="14" font-weight="normal" fill="#000000">Получить соль SALT16</text>
<text x="600.0" y="1959.0" text-anchor="middle" font-family="Arial, Helvetica, sans-serif" font-size="14" font-weight="normal" fill="#000000">или сообщение ERR</text>
<polygon points="600.0,2006 730.0,2061.0 600.0,2116 470.0,2061.0" stroke="#000000" fill="#ffffff" stroke-width="2" />
<text x="600.0" y="2057.0" text-anchor="middle" font-family="Arial, Helvetica, sans-serif" font-size="14" font-weight="normal" fill="#000000">Получен ERR</text>
<text x="600.0" y="2075.0" text-anchor="middle" font-family="Arial, Helvetica, sans-serif" font-size="14" font-weight="normal" fill="#000000">или неверная соль?</text>
<rect x="390.0" y="2146" width="420" height="62" rx="18" ry="18" stroke="#000000" fill="#ffffff" stroke-width="2" />
<text x="600.0" y="2173.0" text-anchor="middle" font-family="Arial, Helvetica, sans-serif" font-size="14" font-weight="normal" fill="#000000">Вычислить HASH =</text>
<text x="600.0" y="2191.0" text-anchor="middle" font-family="Arial, Helvetica, sans-serif" font-size="14" font-weight="normal" fill="#000000">MD5(SALT + PASSWORD)</text>
<rect x="390.0" y="2238" width="420" height="56" rx="18" ry="18" stroke="#000000" fill="#ffffff" stroke-width="2" />
<text x="600.0" y="2271.0" text-anchor="middle" font-family="Arial, Helvetica, sans-serif" font-size="14" font-weight="normal" fill="#000000">Отправить HASH серверу</text>
<rect x="390.0" y="2324" width="420" height="62" rx="18" ry="18" stroke="#000000" fill="#ffffff" stroke-width="2" />
<text x="600.0" y="2351.0" text-anchor="middle" font-family="Arial, Helvetica, sans-serif" font-size="14" font-weight="normal" fill="#000000">Получить ответ</text>
<text x="600.0" y="2369.0" text-anchor="middle" font-family="Arial, Helvetica, sans-serif" font-size="14" font-weight="normal" fill="#000000">аутентификации</text>
<polygon points="600.0,2416 730.0,2471.0 600.0,2526 470.0,2471.0" stroke="#000000" fill="#ffffff" stroke-width="2" />
<text x="600.0" y="2467.0" text-anchor="middle" font-family="Arial, Helvetica, sans-serif" font-size="14" font-weight="normal" fill="#000000">Ответ сервера</text>
<text x="600.0" y="2485.0" text-anchor="middle" font-family="Arial, Helvetica, sans-serif" font-size="14" font-weight="normal" fill="#000000">равен OK?</text>
<rect x="390.0" y="2556" width="420" height="56" rx="18" ry="18" stroke="#000000" fill="#ffffff" stroke-width="2" />
<text x="600.0" y="2589.0" text-anchor="middle" font-family="Arial, Helvetica, sans-serif" font-size="14" font-weight="normal" fill="#000000">Отправить количество векторов</text>
<rect x="390.0" y="2642" width="420" height="56" rx="18" ry="18" stroke="#000000" fill="#ffffff" stroke-width="2" />
<text x="600.0" y="2675.0" text-anchor="middle" font-family="Arial, Helvetica, sans-serif" font-size="14" font-weight="normal" fill="#000000">Выбрать очередной вектор</text>
<rect x="390.0" y="2728" width="420" height="56" rx="18" ry="18" stroke="#000000" fill="#ffffff" stroke-width="2" />
<text x="600.0" y="2761.0" text-anchor="middle" font-family="Arial, Helvetica, sans-serif" font-size="14" font-weight="normal" fill="#000000">Отправить размер вектора</text>
<polygon points="600.0,2814 730.0,2869.0 600.0,2924 470.0,2869.0" stroke="#000000" fill="#ffffff" stroke-width="2" />
<text x="600.0" y="2865.0" text-anchor="middle" font-family="Arial, Helvetica, sans-serif" font-size="14" font-weight="normal" fill="#000000">Размер</text>
<text x="600.0" y="2883.0" text-anchor="middle" font-family="Arial, Helvetica, sans-serif" font-size="14" font-weight="normal" fill="#000000">вектора &gt; 0?</text>
<rect x="390.0" y="2954" width="420" height="56" rx="18" ry="18" stroke="#000000" fill="#ffffff" stroke-width="2" />
<text x="600.0" y="2987.0" text-anchor="middle" font-family="Arial, Helvetica, sans-serif" font-size="14" font-weight="normal" fill="#000000">Отправить элементы вектора</text>
<rect x="390.0" y="3040" width="420" height="62" rx="18" ry="18" stroke="#000000" fill="#ffffff" stroke-width="2" />
<text x="600.0" y="3067.0" text-anchor="middle" font-family="Arial, Helvetica, sans-serif" font-size="14" font-weight="normal" fill="#000000">Получить результат</text>
<text x="600.0" y="3085.0" text-anchor="middle" font-family="Arial, Helvetica, sans-serif" font-size="14" font-weight="normal" fill="#000000">обработки вектора</text>
<polygon points="600.0,3132 730.0,3187.0 600.0,3242 470.0,3187.0" stroke="#000000" fill="#ffffff" stroke-width="2" />
<text x="600.0" y="3183.0" text-anchor="middle" font-family="Arial, Helvetica, sans-serif" font-size="14" font-weight="normal" fill="#000000">Результат</text>
<text x="600.0" y="3201.0" text-anchor="middle" font-family="Arial, Helvetica, sans-serif" font-size="14" font-weight="normal" fill="#000000">получен?</text>
<rect x="390.0" y="3272" width="420" height="62" rx="18" ry="18" stroke="#000000" fill="#ffffff" stroke-width="2" />
<text x="600.0" y="3299.0" text-anchor="middle" font-family="Arial, Helvetica, sans-serif" font-size="14" font-weight="normal" fill="#000000">Сохранить результат</text>
<text x="600.0" y="3317.0" text-anchor="middle" font-family="Arial, Helvetica, sans-serif" font-size="14" font-weight="normal" fill="#000000">во внутренний список</text>
<polygon points="600.0,3364 730.0,3419.0 600.0,3474 470.0,3419.0" stroke="#000000" fill="#ffffff" stroke-width="2" />
<text x="600.0" y="3406.0" text-anchor="middle" font-family="Arial, Helvetica, sans-serif" font-size="14" font-weight="normal" fill="#000000">Остались</text>
<text x="600.0" y="3424.0" text-anchor="middle" font-family="Arial, Helvetica, sans-serif" font-size="14" font-weight="normal" fill="#000000">неотправленные</text>
<text x="600.0" y="3442.0" text-anchor="middle" font-family="Arial, Helvetica, sans-serif" font-size="14" font-weight="normal" fill="#000000">векторы?</text>
<rect x="390.0" y="3504" width="420" height="62" rx="18" ry="18" stroke="#000000" fill="#ffffff" stroke-width="2" />
<text x="600.0" y="3531.0" text-anchor="middle" font-family="Arial, Helvetica, sans-serif" font-size="14" font-weight="normal" fill="#000000">Сохранить результаты</text>
<text x="600.0" y="3549.0" text-anchor="middle" font-family="Arial, Helvetica, sans-serif" font-size="14" font-weight="normal" fill="#000000">в выходной файл</text>
<polygon points="600.0,3596 730.0,3651.0 600.0,3706 470.0,3651.0" stroke="#000000" fill="#ffffff" stroke-width="2" />
<text x="600.0" y="3647.0" text-anchor="middle" font-family="Arial, Helvetica, sans-serif" font-size="14" font-weight="normal" fill="#000000">Сохранение</text>
<text x="600.0" y="3665.0" text-anchor="middle" font-family="Arial, Helvetica, sans-serif" font-size="14" font-weight="normal" fill="#000000">выполнено?</text>
<rect x="390.0" y="3736" width="420" height="56" rx="18" ry="18" stroke="#000000" fill="#ffffff" stroke-width="2" />
<text x="600.0" y="3769.0" text-anchor="middle" font-family="Arial, Helvetica, sans-serif" font-size="14" font-weight="normal" fill="#000000">Закрыть соединение</text>
<rect x="385.0" y="3822" width="430" height="62" rx="18" ry="18" stroke="#000000" fill="#ffffff" stroke-width="2" />
<text x="600.0" y="3849.0" text-anchor="middle" font-family="Arial, Helvetica, sans-serif" font-size="14" font-weight="normal" fill="#000000">Завершить работу программы</text>
<text x="600.0" y="3867.0" text-anchor="middle" font-family="Arial, Helvetica, sans-serif" font-size="14" font-weight="normal" fill="#000000">с кодом успеха</text>
<circle cx="600.0" cy="3932" r="18" stroke="#000000" fill="#ffffff" stroke-width="2" />
<circle cx="600.0" cy="3932" r="12" stroke="#000000" fill="#000000" stroke-width="2" />
<rect x="205" y="771" width="290" height="60" rx="18" ry="18" stroke="#000000" fill="#ffffff" stroke-width="2" />
<text x="350.0" y="797.0" text-anchor="middle" font-family="Arial, Helvetica, sans-serif" font-size="14" font-weight="normal" fill="#000000">Вывести сообщение об ошибке</text>
<text x="350.0" y="815.0" text-anchor="middle" font-family="Arial, Helvetica, sans-serif" font-size="14" font-weight="normal" fill="#000000">и завершить работу</text>
<rect x="205" y="997" width="290" height="60" rx="18" ry="18" stroke="#000000" fill="#ffffff" stroke-width="2" />
<text x="350.0" y="1032.0" text-anchor="middle" font-family="Arial, Helvetica, sans-serif" font-size="14" font-weight="normal" fill="#000000">Ошибка чтения конфигурации</text>
<rect x="205" y="1239" width="290" height="60" rx="18" ry="18" stroke="#000000" fill="#ffffff" stroke-width="2" />
<text x="350.0" y="1274.0" text-anchor="middle" font-family="Arial, Helvetica, sans-serif" font-size="14" font-weight="normal" fill="#000000">Ошибка чтения входных данных</text>
<rect x="205" y="1471" width="290" height="60" rx="18" ry="18" stroke="#000000" fill="#ffffff" stroke-width="2" />
<text x="350.0" y="1506.0" text-anchor="middle" font-family="Arial, Helvetica, sans-serif" font-size="14" font-weight="normal" fill="#000000">Ошибка валидации данных</text>
<rect x="205" y="1703" width="290" height="60" rx="18" ry="18" stroke="#000000" fill="#ffffff" stroke-width="2" />
<text x="350.0" y="1738.0" text-anchor="middle" font-family="Arial, Helvetica, sans-serif" font-size="14" font-weight="normal" fill="#000000">Ошибка подключения к серверу</text>
<rect x="205" y="2021" width="290" height="60" rx="18" ry="18" stroke="#000000" fill="#ffffff" stroke-width="2" />
<text x="350.0" y="2056.0" text-anchor="middle" font-family="Arial, Helvetica, sans-serif" font-size="14" font-weight="normal" fill="#000000">Ошибка аутентификации</text>
<rect x="205" y="2431" width="290" height="60" rx="18" ry="18" stroke="#000000" fill="#ffffff" stroke-width="2" />
<text x="350.0" y="2466.0" text-anchor="middle" font-family="Arial, Helvetica, sans-serif" font-size="14" font-weight="normal" fill="#000000">Ошибка аутентификации</text>
<rect x="205" y="3142" width="290" height="60" rx="18" ry="18" stroke="#000000" fill="#ffffff" stroke-width="2" />
<text x="350.0" y="3177.0" text-anchor="middle" font-family="Arial, Helvetica, sans-serif" font-size="14" font-weight="normal" fill="#000000">Ошибка обмена данными</text>
<rect x="205" y="3611" width="290" height="60" rx="18" ry="18" stroke="#000000" fill="#ffffff" stroke-width="2" />
<text x="350.0" y="3646.0" text-anchor="middle" font-family="Arial, Helvetica, sans-serif" font-size="14" font-weight="normal" fill="#000000">Ошибка сохранения результатов</text>
<rect x="205" y="2151" width="290" height="60" rx="18" ry="18" stroke="#000000" fill="#ffffff" stroke-width="2" />
<text x="350.0" y="2186.0" text-anchor="middle" font-family="Arial, Helvetica, sans-serif" font-size="14" font-weight="normal" fill="#000000">Закрыть соединение</text>
<circle cx="350.0" cy="3916" r="18" stroke="#000000" fill="#ffffff" stroke-width="2" />
<circle cx="350.0" cy="3916" r="12" stroke="#000000" fill="#000000" stroke-width="2" />
<line x1="600.0" y1="76" x2="600.0" y2="106" stroke="#000000" stroke-width="2" marker-end="url(#arrow)" />
<line x1="600.0" y1="168" x2="600.0" y2="198" stroke="#000000" stroke-width="2" marker-end="url(#arrow)" />
<line x1="600.0" y1="552" x2="600.0" y2="582" stroke="#000000" stroke-width="2" marker-end="url(#arrow)" />
<line x1="600.0" y1="644" x2="600.0" y2="674" stroke="#000000" stroke-width="2" marker-end="url(#arrow)" />
<line x1="600.0" y1="736" x2="600.0" y2="766" stroke="#000000" stroke-width="2" marker-end="url(#arrow)" />
<line x1="600.0" y1="962" x2="600.0" y2="992" stroke="#000000" stroke-width="2" marker-end="url(#arrow)" />
<line x1="600.0" y1="1194" x2="600.0" y2="1224" stroke="#000000" stroke-width="2" marker-end="url(#arrow)" />
<line x1="600.0" y1="1426" x2="600.0" y2="1456" stroke="#000000" stroke-width="2" marker-end="url(#arrow)" />
<line x1="600.0" y1="1658" x2="600.0" y2="1688" stroke="#000000" stroke-width="2" marker-end="url(#arrow)" />
<line x1="600.0" y1="1884" x2="600.0" y2="1914" stroke="#000000" stroke-width="2" marker-end="url(#arrow)" />
<line x1="600.0" y1="2208" x2="600.0" y2="2238" stroke="#000000" stroke-width="2" marker-end="url(#arrow)" />
<line x1="600.0" y1="2294" x2="600.0" y2="2324" stroke="#000000" stroke-width="2" marker-end="url(#arrow)" />
<line x1="600.0" y1="2612" x2="600.0" y2="3364" stroke="#000000" stroke-width="2" marker-end="url(#arrow)" />
<line x1="600.0" y1="3566" x2="600.0" y2="3596" stroke="#000000" stroke-width="2" marker-end="url(#arrow)" />
<line x1="600.0" y1="3792" x2="600.0" y2="3822" stroke="#000000" stroke-width="2" marker-end="url(#arrow)" />
<line x1="600.0" y1="3884" x2="600.0" y2="3914" stroke="#000000" stroke-width="2" marker-end="url(#arrow)" />
<line x1="730.0" y1="253.0" x2="940" y2="253.0" stroke="#000000" stroke-width="2" marker-end="url(#arrow)" />
<text x="835.0" y="243.0" text-anchor="middle" font-family="Arial, Helvetica, sans-serif" font-size="14" font-weight="normal" fill="#000000">нет</text>
<line x1="940" y1="253.0" x2="940" y2="486" stroke="#000000" stroke-width="2" marker-end="url(#arrow)" />
<line x1="940" y1="486" x2="600.0" y2="486" stroke="#000000" stroke-width="2" marker-end="url(#arrow)" />
<line x1="600.0" y1="486" x2="600.0" y2="496" stroke="#000000" stroke-width="2" marker-end="url(#arrow)" />
<line x1="600.0" y1="308" x2="600.0" y2="338" stroke="#000000" stroke-width="2" marker-end="url(#arrow)" />
<text x="638.0" y="323.0" text-anchor="middle" font-family="Arial, Helvetica, sans-serif" font-size="14" font-weight="normal" fill="#000000">да</text>
<line x1="600.0" y1="400" x2="600.0" y2="430" stroke="#000000" stroke-width="2" marker-end="url(#arrow)" />
<line x1="470.0" y1="821.0" x2="495" y2="821.0" stroke="#000000" stroke-width="2" marker-end="url(#arrow)" />
<text x="482.5" y="811.0" text-anchor="middle" font-family="Arial, Helvetica, sans-serif" font-size="14" font-weight="normal" fill="#000000">нет</text>
<line x1="495" y1="821.0" x2="350.0" y2="771" stroke="#000000" stroke-width="2" marker-end="url(#arrow)" />
<line x1="600.0" y1="876" x2="600.0" y2="906" stroke="#000000" stroke-width="2" marker-end="url(#arrow)" />
<text x="638.0" y="891.0" text-anchor="middle" font-family="Arial, Helvetica, sans-serif" font-size="14" font-weight="normal" fill="#000000">да</text>
<line x1="470.0" y1="1047.0" x2="495" y2="1047.0" stroke="#000000" stroke-width="2" marker-end="url(#arrow)" />
<text x="482.5" y="1037.0" text-anchor="middle" font-family="Arial, Helvetica, sans-serif" font-size="14" font-weight="normal" fill="#000000">нет</text>
<line x1="495" y1="1047.0" x2="350.0" y2="997" stroke="#000000" stroke-width="2" marker-end="url(#arrow)" />
<line x1="600.0" y1="1102" x2="600.0" y2="1132" stroke="#000000" stroke-width="2" marker-end="url(#arrow)" />
<text x="638.0" y="1117.0" text-anchor="middle" font-family="Arial, Helvetica, sans-serif" font-size="14" font-weight="normal" fill="#000000">да</text>
<line x1="470.0" y1="1279.0" x2="495" y2="1279.0" stroke="#000000" stroke-width="2" marker-end="url(#arrow)" />
<text x="482.5" y="1269.0" text-anchor="middle" font-family="Arial, Helvetica, sans-serif" font-size="14" font-weight="normal" fill="#000000">нет</text>
<line x1="495" y1="1279.0" x2="350.0" y2="1239" stroke="#000000" stroke-width="2" marker-end="url(#arrow)" />
<line x1="600.0" y1="1334" x2="600.0" y2="1364" stroke="#000000" stroke-width="2" marker-end="url(#arrow)" />
<text x="638.0" y="1349.0" text-anchor="middle" font-family="Arial, Helvetica, sans-serif" font-size="14" font-weight="normal" fill="#000000">да</text>
<line x1="470.0" y1="1511.0" x2="495" y2="1511.0" stroke="#000000" stroke-width="2" marker-end="url(#arrow)" />
<text x="482.5" y="1501.0" text-anchor="middle" font-family="Arial, Helvetica, sans-serif" font-size="14" font-weight="normal" fill="#000000">нет</text>
<line x1="495" y1="1511.0" x2="350.0" y2="1471" stroke="#000000" stroke-width="2" marker-end="url(#arrow)" />
<line x1="600.0" y1="1566" x2="600.0" y2="1596" stroke="#000000" stroke-width="2" marker-end="url(#arrow)" />
<text x="638.0" y="1581.0" text-anchor="middle" font-family="Arial, Helvetica, sans-serif" font-size="14" font-weight="normal" fill="#000000">да</text>
<line x1="470.0" y1="1743.0" x2="495" y2="1743.0" stroke="#000000" stroke-width="2" marker-end="url(#arrow)" />
<text x="482.5" y="1733.0" text-anchor="middle" font-family="Arial, Helvetica, sans-serif" font-size="14" font-weight="normal" fill="#000000">нет</text>
<line x1="495" y1="1743.0" x2="350.0" y2="1703" stroke="#000000" stroke-width="2" marker-end="url(#arrow)" />
<line x1="600.0" y1="1798" x2="600.0" y2="1828" stroke="#000000" stroke-width="2" marker-end="url(#arrow)" />
<text x="638.0" y="1813.0" text-anchor="middle" font-family="Arial, Helvetica, sans-serif" font-size="14" font-weight="normal" fill="#000000">да</text>
<line x1="600.0" y1="1976" x2="600.0" y2="2006" stroke="#000000" stroke-width="2" marker-end="url(#arrow)" />
<line x1="470.0" y1="2061.0" x2="495" y2="2061.0" stroke="#000000" stroke-width="2" marker-end="url(#arrow)" />
<text x="482.5" y="2051.0" text-anchor="middle" font-family="Arial, Helvetica, sans-serif" font-size="14" font-weight="normal" fill="#000000">да</text>
<line x1="495" y1="2061.0" x2="350.0" y2="2021" stroke="#000000" stroke-width="2" marker-end="url(#arrow)" />
<line x1="350.0" y1="2081" x2="350.0" y2="2151" stroke="#000000" stroke-width="2" marker-end="url(#arrow)" />
<line x1="600.0" y1="2116" x2="600.0" y2="2146" stroke="#000000" stroke-width="2" marker-end="url(#arrow)" />
<text x="645.0" y="2131.0" text-anchor="middle" font-family="Arial, Helvetica, sans-serif" font-size="14" font-weight="normal" fill="#000000">нет</text>
<line x1="600.0" y1="2386" x2="600.0" y2="2416" stroke="#000000" stroke-width="2" marker-end="url(#arrow)" />
<line x1="470.0" y1="2471.0" x2="495" y2="2471.0" stroke="#000000" stroke-width="2" marker-end="url(#arrow)" />
<text x="482.5" y="2461.0" text-anchor="middle" font-family="Arial, Helvetica, sans-serif" font-size="14" font-weight="normal" fill="#000000">нет</text>
<line x1="495" y1="2471.0" x2="350.0" y2="2431" stroke="#000000" stroke-width="2" marker-end="url(#arrow)" />
<line x1="350.0" y1="2491" x2="350.0" y2="2151" stroke="#000000" stroke-width="2" marker-end="url(#arrow)" />
<line x1="600.0" y1="2526" x2="600.0" y2="2556" stroke="#000000" stroke-width="2" marker-end="url(#arrow)" />
<text x="638.0" y="2541.0" text-anchor="middle" font-family="Arial, Helvetica, sans-serif" font-size="14" font-weight="normal" fill="#000000">да</text>
<line x1="600.0" y1="3474" x2="600.0" y2="2642" stroke="#000000" stroke-width="2" marker-end="url(#arrow)" />
<text x="638.0" y="3058.0" text-anchor="middle" font-family="Arial, Helvetica, sans-serif" font-size="14" font-weight="normal" fill="#000000">да</text>
<line x1="600.0" y1="2698" x2="600.0" y2="2728" stroke="#000000" stroke-width="2" marker-end="url(#arrow)" />
<line x1="600.0" y1="2784" x2="600.0" y2="2814" stroke="#000000" stroke-width="2" marker-end="url(#arrow)" />
<line x1="600.0" y1="2924" x2="600.0" y2="3040" stroke="#000000" stroke-width="2" marker-end="url(#arrow)" />
<text x="645.0" y="2982.0" text-anchor="middle" font-family="Arial, Helvetica, sans-serif" font-size="14" font-weight="normal" fill="#000000">нет</text>
<line x1="730.0" y1="2869.0" x2="855" y2="2869.0" stroke="#000000" stroke-width="2" marker-end="url(#arrow)" />
<text x="792.5" y="2859.0" text-anchor="middle" font-family="Arial, Helvetica, sans-serif" font-size="14" font-weight="normal" fill="#000000">да</text>
<line x1="855" y1="2869.0" x2="855" y2="2944" stroke="#000000" stroke-width="2" marker-end="url(#arrow)" />
<line x1="855" y1="2944" x2="600.0" y2="2944" stroke="#000000" stroke-width="2" marker-end="url(#arrow)" />
<line x1="600.0" y1="2944" x2="600.0" y2="2954" stroke="#000000" stroke-width="2" marker-end="url(#arrow)" />
<line x1="600.0" y1="3010" x2="600.0" y2="3040" stroke="#000000" stroke-width="2" marker-end="url(#arrow)" />
<line x1="600.0" y1="3102" x2="600.0" y2="3132" stroke="#000000" stroke-width="2" marker-end="url(#arrow)" />
<line x1="470.0" y1="3187.0" x2="495" y2="3187.0" stroke="#000000" stroke-width="2" marker-end="url(#arrow)" />
<text x="482.5" y="3177.0" text-anchor="middle" font-family="Arial, Helvetica, sans-serif" font-size="14" font-weight="normal" fill="#000000">нет</text>
<line x1="495" y1="3187.0" x2="350.0" y2="3187.0" stroke="#000000" stroke-width="2" marker-end="url(#arrow)" />
<line x1="350.0" y1="3187.0" x2="350.0" y2="2151" stroke="#000000" stroke-width="2" marker-end="url(#arrow)" />
<line x1="600.0" y1="3242" x2="600.0" y2="3272" stroke="#000000" stroke-width="2" marker-end="url(#arrow)" />
<text x="638.0" y="3257.0" text-anchor="middle" font-family="Arial, Helvetica, sans-serif" font-size="14" font-weight="normal" fill="#000000">да</text>
<line x1="600.0" y1="3334" x2="600.0" y2="3364" stroke="#000000" stroke-width="2" marker-end="url(#arrow)" />
<line x1="730.0" y1="3419.0" x2="915" y2="3419.0" stroke="#000000" stroke-width="2" marker-end="url(#arrow)" />
<text x="822.5" y="3409.0" text-anchor="middle" font-family="Arial, Helvetica, sans-serif" font-size="14" font-weight="normal" fill="#000000">нет</text>
<line x1="915" y1="3419.0" x2="915" y2="3494" stroke="#000000" stroke-width="2" marker-end="url(#arrow)" />
<line x1="915" y1="3494" x2="600.0" y2="3494" stroke="#000000" stroke-width="2" marker-end="url(#arrow)" />
<line x1="600.0" y1="3494" x2="600.0" y2="3504" stroke="#000000" stroke-width="2" marker-end="url(#arrow)" />
<line x1="470.0" y1="3651.0" x2="495" y2="3651.0" stroke="#000000" stroke-width="2" marker-end="url(#arrow)" />
<text x="482.5" y="3641.0" text-anchor="middle" font-family="Arial, Helvetica, sans-serif" font-size="14" font-weight="normal" fill="#000000">нет</text>
<line x1="495" y1="3651.0" x2="350.0" y2="3651.0" stroke="#000000" stroke-width="2" marker-end="url(#arrow)" />
<line x1="350.0" y1="3651.0" x2="350.0" y2="2151" stroke="#000000" stroke-width="2" marker-end="url(#arrow)" />
<line x1="600.0" y1="3706" x2="600.0" y2="3736" stroke="#000000" stroke-width="2" marker-end="url(#arrow)" />
<text x="638.0" y="3721.0" text-anchor="middle" font-family="Arial, Helvetica, sans-serif" font-size="14" font-weight="normal" fill="#000000">да</text>
<line x1="350.0" y1="2211" x2="350.0" y2="3898" stroke="#000000" stroke-width="2" marker-end="url(#arrow)" />
</svg>
